<svg width="39" height="40" viewBox="0 0 39 40" fill="none" xmlns="http://www.w3.org/2000/svg">
<path fill-rule="evenodd" clip-rule="evenodd" d="M8.60609 20C8.60609 18.7298 8.81706 17.512 9.19359 16.3698L2.60291 11.3369C1.31842 13.9449 0.594727 16.8836 0.594727 20C0.594727 23.1138 1.31753 26.0507 2.60024 28.6569L9.18736 23.6142C8.81439 22.4774 8.60609 21.264 8.60609 20Z" fill="#FBBC05"/>
<path fill-rule="evenodd" clip-rule="evenodd" d="M20.1782 8.44446C22.9376 8.44446 25.4301 9.42224 27.3884 11.0222L33.0854 5.33335C29.6138 2.31112 25.163 0.444458 20.1782 0.444458C12.4392 0.444458 5.78799 4.87024 2.60303 11.3369L9.19371 16.3698C10.7123 11.76 15.0411 8.44446 20.1782 8.44446Z" fill="#EB4335"/>
<path fill-rule="evenodd" clip-rule="evenodd" d="M20.1782 31.5556C15.0411 31.5556 10.7123 28.24 9.19371 23.6302L2.60303 28.6623C5.78799 35.1298 12.4392 39.5556 20.1782 39.5556C24.9547 39.5556 29.515 37.8596 32.9376 34.6818L26.6816 29.8454C24.9165 30.9574 22.6937 31.5556 20.1782 31.5556Z" fill="#34A853"/>
<path fill-rule="evenodd" clip-rule="evenodd" d="M38.8712 20C38.8712 18.8445 38.6931 17.6 38.4261 16.4445H20.178V24H30.6818C30.1566 26.576 28.727 28.5565 26.6814 29.8453L32.9374 34.6818C36.5327 31.3449 38.8712 26.3742 38.8712 20Z" fill="#4285F4"/>
</svg>
