<svg width="40" height="40" viewBox="0 0 40 40" fill="none" xmlns="http://www.w3.org/2000/svg">
<path d="M18.2901 26.685C15.7384 26.4183 13.4368 25.785 11.4668 24.2333C11.2218 24.04 10.9684 23.8533 10.7468 23.6383C9.88345 22.805 9.79678 21.8483 10.4801 20.865C11.0634 20.0217 12.0434 19.7967 13.0618 20.2817C13.2584 20.3733 13.4451 20.4917 13.6268 20.6167C17.2984 23.1567 22.3434 23.2267 26.0284 20.7317C26.3951 20.4483 26.7851 20.2183 27.2368 20.1017C28.1168 19.875 28.9368 20.2 29.4084 20.975C29.9484 21.8583 29.9418 22.725 29.2768 23.41C28.2584 24.465 27.0318 25.2267 25.6701 25.7583C24.3818 26.2617 22.9701 26.515 21.5751 26.6817C21.7851 26.9133 21.8851 27.0267 22.0168 27.16C23.9118 29.0767 25.8168 30.9883 27.7068 32.9117C28.3501 33.5683 28.4851 34.38 28.1301 35.1433C27.7418 35.9767 26.8751 36.525 26.0234 36.4667C25.4851 36.4283 25.0651 36.1583 24.6901 35.78C23.2601 34.33 21.8034 32.9067 20.4018 31.43C19.9934 31 19.7968 31.0817 19.4368 31.455C17.9984 32.9467 16.5368 34.415 15.0634 35.8767C14.4034 36.5317 13.6168 36.65 12.8501 36.2767C12.0368 35.8767 11.5168 35.0417 11.5584 34.2C11.5851 33.63 11.8634 33.1967 12.2518 32.8067C14.1284 30.92 15.9984 29.0283 17.8701 27.14C17.9934 27.0133 18.1101 26.88 18.2901 26.685Z" fill="#DB6E09"/>
<path d="M19.845 20.115C15.2917 20.0983 11.5584 16.2983 11.5834 11.705C11.61 7.06167 15.3467 3.32167 19.945 3.33334C24.5517 3.34501 28.25 7.14167 28.2284 11.8333C28.2034 16.4167 24.445 20.13 19.845 20.115ZM23.9834 11.715C23.9865 11.1783 23.8834 10.6462 23.6802 10.1494C23.477 9.65264 23.1776 9.20092 22.7992 8.82022C22.4208 8.43952 21.9709 8.13736 21.4754 7.9311C20.9799 7.72484 20.4485 7.61855 19.9117 7.61834C19.3699 7.61782 18.8334 7.72525 18.3336 7.93438C17.8338 8.1435 17.3807 8.45011 17.0007 8.83631C16.6207 9.22251 16.3215 9.68055 16.1205 10.1837C15.9195 10.6868 15.8207 11.225 15.83 11.7667C15.8307 12.3036 15.9375 12.8351 16.1444 13.3306C16.3513 13.8261 16.6542 14.2758 17.0356 14.6538C17.4169 15.0318 17.8693 15.3306 18.3666 15.533C18.864 15.7354 19.3964 15.8375 19.9334 15.8333C20.4703 15.8314 21.0015 15.7231 21.4964 15.5147C21.9912 15.3063 22.4399 15.002 22.8165 14.6192C23.193 14.2364 23.49 13.7829 23.6903 13.2847C23.8906 12.7865 23.9902 12.2536 23.9834 11.7167V11.715Z" fill="#DB6E09"/>
</svg>
