<svg width="40" height="40" viewBox="0 0 40 40" fill="none" xmlns="http://www.w3.org/2000/svg">
<path d="M27.3501 2.5H22.3501C17.3501 2.5 12.2626 6.25 12.2626 14.525C12.158 16.443 12.5861 18.3526 13.4994 20.0425C14.4128 21.7324 15.7757 23.1366 17.4376 24.1L11.2501 35.1625C11.1083 35.403 11.0334 35.6771 11.0334 35.9562C11.0334 36.2354 11.1083 36.5095 11.2501 36.75C11.3784 36.9702 11.5602 37.1544 11.7788 37.2855C11.9973 37.4166 12.2454 37.4904 12.5001 37.5H15.6126C15.9284 37.5154 16.2413 37.4338 16.5094 37.2662C16.7776 37.0987 16.988 36.8531 17.1126 36.5625L22.8501 25.3125H23.2751V36.0875C23.2765 36.2801 23.3169 36.4703 23.3939 36.6468C23.4709 36.8233 23.5829 36.9824 23.7231 37.1144C23.8633 37.2464 24.0288 37.3487 24.2096 37.4149C24.3904 37.4812 24.5828 37.5101 24.7751 37.5H27.5001C27.8673 37.5136 28.2252 37.3823 28.4964 37.1345C28.7677 36.8866 28.9306 36.542 28.9501 36.175V4.025C28.9551 3.82964 28.9215 3.63522 28.8513 3.45283C28.7811 3.27045 28.6757 3.10368 28.5411 2.96206C28.4064 2.82044 28.2452 2.70674 28.0665 2.62746C27.8879 2.54817 27.6954 2.50486 27.5001 2.5H27.3501ZM23.3751 20.35H22.6376C19.7626 20.35 18.0626 18.0125 18.0626 14.1C18.0626 9.225 20.2251 7.4875 22.2376 7.4875H23.4126L23.3751 20.35Z" fill="#D61E3B"/>
</svg>
