<svg width="42" height="42" viewBox="0 0 42 42" fill="none" xmlns="http://www.w3.org/2000/svg">
<path d="M32.8379 6.97392C32.3563 6.99487 31.9143 7.13339 31.526 7.28642C31.1673 7.42769 29.8792 7.96909 27.8281 8.82939C25.777 9.6897 23.0591 10.8304 20.1621 12.0488C14.3681 14.4857 7.85706 17.2268 4.52083 18.6308C4.40627 18.6786 3.94098 18.821 3.42708 19.2135C2.912 19.6069 2.33984 20.4607 2.33984 21.3945C2.33984 22.1477 2.71587 22.9149 3.16992 23.3541C3.62398 23.7934 4.08415 23.9987 4.46875 24.1517V24.1484C5.7688 24.6663 9.65116 26.2199 10.5755 26.5898C10.9034 27.5724 12.311 31.7788 12.6458 32.8366H12.6426C12.8793 33.5852 13.11 34.0732 13.4303 34.4804C13.5905 34.6841 13.7817 34.8686 14.0163 35.0143C14.1063 35.0702 14.2059 35.1135 14.306 35.1543C14.3199 35.1602 14.3343 35.1616 14.3483 35.1673L14.3092 35.1575C14.3383 35.1692 14.3643 35.1864 14.3939 35.1966C14.4421 35.2132 14.4755 35.2126 14.5404 35.2259C14.7687 35.2961 14.9966 35.3431 15.2077 35.3431C16.1137 35.3431 16.6693 34.8515 16.6693 34.8515L16.7051 34.8255L20.6178 31.5149L25.4095 35.9485C25.497 36.0721 26.1827 37 27.7695 37C28.7164 37 29.465 36.5313 29.944 36.0397C30.423 35.5481 30.7213 35.0451 30.8555 34.3632L30.8587 34.36C30.9657 33.8097 35.5527 10.776 35.5527 10.776L35.543 10.8151C35.6857 10.1778 35.7279 9.56157 35.5592 8.93356C35.3906 8.30555 34.9355 7.69267 34.3874 7.37106C33.8393 7.04944 33.3195 6.95297 32.8379 6.97392ZM32.1803 10.623C31.9991 11.5331 27.89 32.1764 27.6361 33.4713L20.7155 27.0683L16.0378 31.0234L17.3333 25.9583C17.3333 25.9583 26.2709 16.9114 26.8092 16.3847C27.2426 15.9631 27.3333 15.8153 27.3333 15.6686C27.3333 15.4736 27.233 15.3333 27.0013 15.3333C26.793 15.3333 26.51 15.5329 26.36 15.6263C24.4539 16.8146 16.3355 21.4411 12.3431 23.7122C12.1028 23.6159 8.49566 22.1674 6.55208 21.3912C10.0092 19.9362 15.9353 17.443 21.4544 15.1217C24.351 13.9035 27.068 12.7618 29.1172 11.9023C30.8469 11.1768 31.7492 10.8011 32.1803 10.623ZM27.5872 33.7089H27.5905L27.5872 33.7187C27.5894 33.7079 27.5856 33.7174 27.5872 33.7089Z" fill="black"/>
<circle cx="21" cy="21" r="20.5" stroke="black"/>
</svg>
