<svg width="42" height="42" viewBox="0 0 42 42" fill="none" xmlns="http://www.w3.org/2000/svg">
<circle cx="21" cy="21" r="20.5" stroke="black"/>
<path d="M36.965 13.4251C37.1984 12.6501 36.965 12.0818 35.8617 12.0818H32.2067C31.2767 12.0818 30.8517 12.5735 30.6184 13.1135C30.6184 13.1135 28.76 17.6451 26.1267 20.5835C25.2767 21.4385 24.8884 21.7085 24.425 21.7085C24.1934 21.7085 23.8567 21.4385 23.8567 20.6635V13.4251C23.8567 12.4951 23.5884 12.0818 22.8134 12.0818H17.07C16.49 12.0818 16.14 12.5118 16.14 12.9218C16.14 13.8018 17.4567 14.0051 17.5917 16.4851V21.8651C17.5917 23.0435 17.38 23.2585 16.9134 23.2585C15.675 23.2585 12.6617 18.7101 10.8734 13.5035C10.525 12.4918 10.1734 12.0835 9.24004 12.0835H5.58671C4.54171 12.0835 4.33337 12.5751 4.33337 13.1151C4.33337 14.0851 5.57171 18.8851 10.1017 25.2335C13.1217 29.5685 17.3734 31.9185 21.2467 31.9185C23.5684 31.9185 23.855 31.3968 23.855 30.4968V27.2201C23.855 26.1768 24.0767 25.9668 24.8117 25.9668C25.3517 25.9668 26.2817 26.2401 28.45 28.3285C30.9267 30.8051 31.3367 31.9168 32.7284 31.9168H36.3817C37.425 31.9168 37.9467 31.3951 37.6467 30.3651C37.3184 29.3401 36.135 27.8485 34.565 26.0835C33.7117 25.0768 32.4367 23.9935 32.0484 23.4518C31.5067 22.7535 31.6634 22.4451 32.0484 21.8251C32.05 21.8268 36.5017 15.5568 36.965 13.4251Z" fill="black"/>
</svg>
