<svg width="49" height="33" viewBox="0 0 49 33" fill="none" xmlns="http://www.w3.org/2000/svg">
<path d="M5.25439 14.1243L4.50669 11.3338C4.36375 10.8003 4.68033 10.252 5.2138 10.1091L38.2826 1.24832C38.816 1.10537 39.3644 1.42196 39.5073 1.95542L40.4861 5.6085C40.5972 6.023 40.963 6.31375 41.3798 6.41549C42.7774 6.75657 44.8509 7.89771 45.5955 10.6768C46.3402 13.456 45.1151 15.481 44.0753 16.4751C43.7652 16.7717 43.5938 17.2064 43.7048 17.6209L44.6837 21.2739C44.8266 21.8074 44.51 22.3557 43.9766 22.4987L10.9078 31.3594C10.3744 31.5024 9.82602 31.1858 9.68308 30.6523L8.93537 27.8619C8.79243 27.3284 8.23404 27.0255 7.68468 26.9687C5.87636 26.782 3.86989 24.9575 3.09481 22.0649C2.23588 18.8593 3.56331 16.591 4.66864 15.6099C5.08169 15.2432 5.39733 14.6577 5.25439 14.1243Z" stroke="#255E8B" stroke-width="2"/>
<rect x="16.8296" y="18" width="1" height="5" rx="0.5" transform="rotate(75 16.8296 18)" fill="#255E8B"/>
<rect x="27.8633" y="9" width="1" height="14" rx="0.5" transform="rotate(20.3265 27.8633 9)" fill="#255E8B"/>
<circle cx="21.5" cy="11.5" r="2.5" stroke="#255E8B" stroke-width="2"/>
<circle cx="30.5" cy="19.5" r="2.5" stroke="#255E8B" stroke-width="2"/>
</svg>
