<svg width="50" height="50" viewBox="0 0 50 50" fill="none" xmlns="http://www.w3.org/2000/svg">
<path d="M22.6383 5.99763L21.8595 5.43767L22.6383 5.99763L25 2.71298L27.3617 5.99763C27.935 6.79503 29.0025 7.05814 29.8808 6.61852L33.4984 4.80765L34.0631 8.8136C34.2002 9.78611 35.0232 10.5152 36.0051 10.534L40.0499 10.6118L38.6883 14.4213C38.3578 15.3462 38.7476 16.3741 39.6083 16.8472L43.1537 18.7957L40.1777 21.5361C39.4552 22.2014 39.3227 23.2928 39.8649 24.1117L40.6987 23.5595L39.8649 24.1117L42.0987 27.4847L38.19 28.5281C37.2411 28.7815 36.6166 29.6863 36.7162 30.6633L37.1265 34.688L33.1807 33.7955C32.2227 33.5789 31.2492 34.0898 30.8834 35.0012L29.3764 38.7556L26.2972 36.1316C25.5497 35.4946 24.4503 35.4946 23.7028 36.1316L20.6236 38.7556L19.1166 35.0012C18.7508 34.0898 17.7773 33.5789 16.8193 33.7955L12.8735 34.688L13.2838 30.6633C13.3835 29.6863 12.7589 28.7815 11.81 28.5281L7.90134 27.4847L10.1351 24.1117C10.6773 23.2928 10.5448 22.2014 9.82234 21.5361L6.84632 18.7957L10.3917 16.8472C11.2524 16.3741 11.6422 15.3461 11.3117 14.4213L9.95008 10.6118L13.9949 10.534C14.9768 10.5152 15.7998 9.7861 15.9369 8.8136L16.5016 4.80765L20.1192 6.61852C20.9975 7.05814 22.065 6.79503 22.6383 5.99763Z" stroke="#255E8B" stroke-width="2"/>
<path d="M20.4286 21.0297L19.7874 21.7971L20.4286 21.0297L16.164 17.4665L21.7085 17.0906C22.4744 17.0387 23.143 16.5529 23.4291 15.8405L25.5 10.6835L27.5709 15.8405C27.857 16.5529 28.5256 17.0387 29.2915 17.0906L34.836 17.4665L30.5714 21.0297C29.9823 21.5219 29.7269 22.3079 29.9142 23.0524L31.27 28.4417L26.5634 25.4869C25.9132 25.0787 25.0868 25.0787 24.4366 25.4869L24.9683 26.3338L24.4366 25.4869L19.73 28.4417L21.0858 23.0524C21.2731 22.3079 21.0177 21.5219 20.4286 21.0297Z" stroke="#255E8B" stroke-width="2"/>
<path d="M20.5 37.4999L15.5484 45.7309L14.3105 39.0038L7.99978 41.3727L13 33" stroke="#255E8B" stroke-width="2"/>
<path d="M37 32.4999L42.5378 41.3727L36.093 39.0812L34.9891 45.7309L30.237 37.4999" stroke="#255E8B" stroke-width="2"/>
</svg>
